<?xml version="1.0" encoding="UTF-8" standalone="no"?>
<!-- Generator: Adobe Illustrator 17.1.0, SVG Export Plug-In . SVG Version: 6.00 Build 0)  -->

<svg
   xmlns:dc="http://purl.org/dc/elements/1.1/"
   xmlns:cc="http://creativecommons.org/ns#"
   xmlns:rdf="http://www.w3.org/1999/02/22-rdf-syntax-ns#"
   xmlns:svg="http://www.w3.org/2000/svg"
   xmlns="http://www.w3.org/2000/svg"
   xmlns:sodipodi="http://sodipodi.sourceforge.net/DTD/sodipodi-0.dtd"
   xmlns:inkscape="http://www.inkscape.org/namespaces/inkscape"
   version="1.1"
   id="Layer_1"
   x="0px"
   y="0px"
   viewBox="0 0 1280 440.89095"
   enable-background="new 0 0 323.141 322.95"
   xml:space="preserve"
   sodipodi:docname="elm-ai.svg"
   inkscape:version="0.92.5 (2060ec1f9f, 2020-04-08)"
   width="1280"
   height="440.89096"
   inkscape:export-filename="/home/davidp/Pictures/elm-ai.png"
   inkscape:export-xdpi="96"
   inkscape:export-ydpi="96"><metadata
   id="metadata3795"><rdf:RDF><cc:Work
       rdf:about=""><dc:format>image/svg+xml</dc:format><dc:type
         rdf:resource="http://purl.org/dc/dcmitype/StillImage" /><dc:title></dc:title></cc:Work></rdf:RDF></metadata><defs
   id="defs3793">
  

  

  

  

  

  

  
</defs><sodipodi:namedview
   pagecolor="#ffffff"
   bordercolor="#666666"
   borderopacity="1"
   objecttolerance="10"
   gridtolerance="10"
   guidetolerance="10"
   inkscape:pageopacity="0"
   inkscape:pageshadow="2"
   inkscape:window-width="1920"
   inkscape:window-height="1043"
   id="namedview3791"
   showgrid="false"
   inkscape:snap-bbox="true"
   inkscape:bbox-paths="true"
   inkscape:snap-bbox-edge-midpoints="true"
   inkscape:bbox-nodes="true"
   inkscape:snap-bbox-midpoints="true"
   inkscape:object-paths="true"
   inkscape:snap-intersection-paths="true"
   inkscape:snap-smooth-nodes="true"
   inkscape:snap-midpoints="true"
   inkscape:snap-object-midpoints="true"
   inkscape:snap-center="true"
   inkscape:snap-global="true"
   inkscape:zoom="0.47348452"
   inkscape:cx="585.15086"
   inkscape:cy="308.30781"
   inkscape:window-x="0"
   inkscape:window-y="0"
   inkscape:window-maximized="1"
   inkscape:current-layer="g843"
   inkscape:snap-page="true" />

<g
   inkscape:groupmode="layer"
   id="layer1"
   inkscape:label="Layer 1"
   style="display:none"
   transform="translate(465.17432,161.32651)"><rect
     style="opacity:1;fill:#f0ad00;fill-opacity:0.70588235;fill-rule:nonzero;stroke:#5a6378;stroke-width:3.12899995;stroke-miterlimit:4;stroke-dasharray:none;stroke-opacity:1"
     id="rect4819"
     width="167.9041"
     height="167.9041"
     x="24.361216"
     y="80.987549"
     transform="rotate(-15)" /><rect
     style="opacity:1;fill:#f0ad00;fill-opacity:0.70588235;fill-rule:nonzero;stroke:#5a6378;stroke-width:3.12899995;stroke-miterlimit:4;stroke-dasharray:none;stroke-opacity:1"
     id="rect4819-2"
     width="167.9041"
     height="167.9041"
     x="-123.99292"
     y="109.26691"
     transform="rotate(-60)" /></g><g
   id="g843"
   transform="matrix(3.7879337,0,0,3.7879337,-5.8681275,-2.0212534)"><g
     id="g859"
     transform="matrix(0.99091436,0,0,0.99091436,1.5491632,0.53360317)"><rect
       style="opacity:1;fill:#ffffff;fill-opacity:1;fill-rule:nonzero;stroke:none;stroke-width:4.54950809;stroke-miterlimit:4;stroke-dasharray:none;stroke-dashoffset:0;stroke-opacity:1"
       id="rect827"
       width="341.01343"
       height="117.18195"
       x="0"
       y="-2.3350764e-14" /><rect
       style="opacity:1;fill:#5a6378;fill-opacity:0.0627451;fill-rule:nonzero;stroke:none;stroke-width:7.83211136;stroke-miterlimit:4;stroke-dasharray:none;stroke-dashoffset:0;stroke-opacity:1"
       id="rect4609"
       width="341.01343"
       height="117.18195"
       x="3.907985e-14"
       y="0.27878016" /><g
       id="g4557"
       transform="translate(15.476139,16)"><polygon
   transform="matrix(0.14213746,0,0,0.14213746,11.708685,63.465905)"
   points="231.514,82.916 91.783,82.916 161.649,152.782 "
   id="polygon3774"
   style="fill:#5a6378;fill-opacity:1" /><polygon
   transform="matrix(0.03678788,0.13729425,-0.13729425,0.03678788,35.804452,23.406485)"
   points="232.213,70.375 161.838,0 8.867,0 79.241,70.375 "
   id="polygon3776"
   style="fill:#f0ad00;fill-opacity:1" /><rect
   inkscape:transform-center-y="-1.2007817"
   inkscape:transform-center-x="-3.4522349"
   x="27.032669"
   y="57.876938"
   width="15.304647"
   height="15.374435"
   id="rect3778"
   style="fill:#5a6378;fill-opacity:1;stroke-width:0.1421361" /><polygon
   transform="matrix(0.10050636,-0.10050636,0.10050636,0.10050636,2.1915361,32.493505)"
   points="323.298,0 179.573,0 323.298,143.724 "
   id="polygon3780"
   style="fill:#60b5cc" /><polygon
   transform="matrix(0.14213746,0,0,0.14213746,47.130217,15.184705)"
   points="0,8.868 0,314.432 152.781,161.649 "
   id="polygon3782"
   style="fill:#60b5cc;fill-opacity:1" /><polygon
   transform="matrix(0.10050636,0.10050636,0.10050636,-0.10050636,-26.232218,15.554185)"
   points="323.298,178.879 255.522,246.655 323.298,314.432 "
   id="polygon3784"
   style="fill:#7fd13b;fill-opacity:1" /><polygon
   transform="matrix(0,-0.14213746,0.14213746,0,-23.712992,61.137555)"
   points="161.649,170.517 8.869,323.298 314.43,323.298 "
   id="polygon3786"
   style="fill:#60b5cc" /><path
   sodipodi:nodetypes="csscccccccc"
   inkscape:connector-curvature="0"
   id="path4713"
   d="m 31.218841,59.692321 c 0,0 -1.512391,-8.771849 -2.06693,-12.704062 -0.554546,-3.932203 1.88888,-3.870313 2.520645,-3.428076 1.512387,1.058674 1.410249,6.280473 -0.150711,5.846633 -2.338394,-0.28855 -1.470321,-6.482667 1.562274,-6.451591 3.923583,0.19226 3.087649,6.435251 1.717103,6.545562 -2.723618,0.337569 -2.081937,-7.399917 1.963041,-6.495142 2.572035,1.110148 2.734186,5.453358 1.613206,6.200784 -1.209908,0.756191 -2.016508,-0.453716 -2.117335,-2.520644 -0.141189,-3.538928 3.38289,-4.905893 3.948655,-1.148644 0.52641,3.322655 -1.629658,14.256001 -1.629658,14.256001"
   style="fill:none;stroke:#5a6378;stroke-width:0.86621374;stroke-linecap:butt;stroke-linejoin:miter;stroke-miterlimit:4;stroke-dasharray:none;stroke-opacity:1" /><rect
   inkscape:transform-center-y="-1.2007817"
   inkscape:transform-center-x="-3.4522349"
   x="26.914131"
   y="59.697128"
   width="15.304647"
   height="15.374435"
   id="rect3778-3"
   style="fill:#000000;fill-opacity:0;stroke-width:0.1421361" /><text
   transform="scale(0.96679157,1.0343491)"
   id="text4918"
   y="42.502899"
   x="86.853767"
   style="font-style:normal;font-variant:normal;font-weight:normal;font-stretch:normal;font-size:15.81470966px;line-height:1.25;font-family:'IBM Plex Sans';-inkscape-font-specification:'IBM Plex Sans';letter-spacing:0px;word-spacing:0px;fill:#000000;fill-opacity:1;stroke:none;stroke-width:0.39536774"
   xml:space="preserve"><tspan
     style="font-style:normal;font-variant:normal;font-weight:600;font-stretch:normal;font-size:21.08627892px;font-family:'IBM Plex Sans';-inkscape-font-specification:'IBM Plex Sans Semi-Bold';stroke-width:0.39536774"
     y="42.502899"
     x="86.853767"
     id="tspan4916"
     sodipodi:role="line">elm-intelligent-search</tspan></text>

</g></g></g>

</svg>