<?xml version="1.0" encoding="UTF-8" standalone="no"?>
<!-- Generator: Adobe Illustrator 17.1.0, SVG Export Plug-In . SVG Version: 6.00 Build 0)  -->

<svg
   xmlns:dc="http://purl.org/dc/elements/1.1/"
   xmlns:cc="http://creativecommons.org/ns#"
   xmlns:rdf="http://www.w3.org/1999/02/22-rdf-syntax-ns#"
   xmlns:svg="http://www.w3.org/2000/svg"
   xmlns="http://www.w3.org/2000/svg"
   xmlns:sodipodi="http://sodipodi.sourceforge.net/DTD/sodipodi-0.dtd"
   xmlns:inkscape="http://www.inkscape.org/namespaces/inkscape"
   version="1.1"
   id="Layer_1"
   x="0px"
   y="0px"
   viewBox="0 0 1280 456.17402"
   enable-background="new 0 0 323.141 322.95"
   xml:space="preserve"
   sodipodi:docname="elm-problem-solving.svg"
   inkscape:version="0.92.5 (2060ec1f9f, 2020-04-08)"
   width="1280"
   height="456.17502"
   inkscape:export-filename="/home/davidp/Pictures/elm-ai.png"
   inkscape:export-xdpi="96"
   inkscape:export-ydpi="96"><metadata
   id="metadata3795"><rdf:RDF><cc:Work
       rdf:about=""><dc:format>image/svg+xml</dc:format><dc:type
         rdf:resource="http://purl.org/dc/dcmitype/StillImage" /><dc:title></dc:title></cc:Work></rdf:RDF></metadata><defs
   id="defs3793">
  

  

  

  

  

  

  


</defs><sodipodi:namedview
   pagecolor="#ffffff"
   bordercolor="#666666"
   borderopacity="1"
   objecttolerance="10"
   gridtolerance="10"
   guidetolerance="10"
   inkscape:pageopacity="0"
   inkscape:pageshadow="2"
   inkscape:window-width="1920"
   inkscape:window-height="1043"
   id="namedview3791"
   showgrid="false"
   inkscape:snap-bbox="true"
   inkscape:bbox-paths="true"
   inkscape:snap-bbox-edge-midpoints="true"
   inkscape:bbox-nodes="true"
   inkscape:snap-bbox-midpoints="true"
   inkscape:object-paths="true"
   inkscape:snap-intersection-paths="true"
   inkscape:snap-smooth-nodes="true"
   inkscape:snap-midpoints="true"
   inkscape:snap-object-midpoints="true"
   inkscape:snap-center="true"
   inkscape:snap-global="true"
   inkscape:zoom="0.5"
   inkscape:cx="725.76784"
   inkscape:cy="384.73283"
   inkscape:window-x="0"
   inkscape:window-y="0"
   inkscape:window-maximized="1"
   inkscape:current-layer="g843"
   inkscape:snap-page="true"
   fit-margin-top="0"
   fit-margin-left="0"
   fit-margin-right="0"
   fit-margin-bottom="0" />

<g
   inkscape:groupmode="layer"
   id="layer1"
   inkscape:label="Layer 1"
   style="display:none"
   transform="translate(465.17437,161.32603)"><rect
     style="opacity:1;fill:#f0ad00;fill-opacity:0.70588235;fill-rule:nonzero;stroke:#5a6378;stroke-width:3.12899995;stroke-miterlimit:4;stroke-dasharray:none;stroke-opacity:1"
     id="rect4819"
     width="167.9041"
     height="167.9041"
     x="24.361216"
     y="80.987549"
     transform="rotate(-15)" /><rect
     style="opacity:1;fill:#f0ad00;fill-opacity:0.70588235;fill-rule:nonzero;stroke:#5a6378;stroke-width:3.12899995;stroke-miterlimit:4;stroke-dasharray:none;stroke-opacity:1"
     id="rect4819-2"
     width="167.9041"
     height="167.9041"
     x="-123.99292"
     y="109.26691"
     transform="rotate(-60)" /></g><g
   id="g843"
   transform="matrix(3.7879337,0,0,3.7879337,-5.8680743,-2.0217339)"><rect
     y="0.53360319"
     x="1.5491492"
     height="120.14264"
     width="337.9151"
     id="rect827"
     style="opacity:1;fill:#ffffff;fill-opacity:1;fill-rule:nonzero;stroke:none;stroke-width:4.58564806;stroke-miterlimit:4;stroke-dasharray:none;stroke-dashoffset:0;stroke-opacity:1" /><rect
     y="0.81942695"
     x="1.5491637"
     height="120.14264"
     width="337.9151"
     id="rect4609"
     style="opacity:1;fill:#5a6378;fill-opacity:0.0627451;fill-rule:nonzero;stroke:none;stroke-width:7.89432716;stroke-miterlimit:4;stroke-dasharray:none;stroke-dashoffset:0;stroke-opacity:1" /><polygon
     transform="matrix(0.14572867,0,0,0.14572867,29.420832,82.007272)"
     points="91.783,82.916 161.649,152.782 231.514,82.916 "
     id="polygon3774"
     style="fill:#5a6378;fill-opacity:1" /><polygon
     transform="matrix(0.03771735,0.14076309,-0.14076309,0.03771735,54.125396,40.935721)"
     points="8.867,0 79.241,70.375 232.213,70.375 161.838,0 "
     id="polygon3776"
     style="fill:#f0ad00;fill-opacity:1" /><rect
     inkscape:transform-center-y="-1.2424122"
     inkscape:transform-center-x="-3.5719084"
     x="45.131985"
     y="76.277092"
     width="15.691331"
     height="15.762882"
     id="rect3778"
     style="fill:#5a6378;fill-opacity:1;stroke-width:0.14572728" /><polygon
     transform="matrix(0.10304573,-0.10304573,0.10304573,0.10304573,19.663226,50.252332)"
     points="179.573,0 323.298,143.724 323.298,0 "
     id="polygon3780"
     style="fill:#60b5cc" /><polygon
     transform="matrix(0.14572867,0,0,0.14572867,65.737315,32.506211)"
     points="0,314.432 152.781,161.649 0,8.868 "
     id="polygon3782"
     style="fill:#60b5cc;fill-opacity:1" /><polygon
     transform="matrix(0.10304573,0.10304573,0.10304573,-0.10304573,-9.4786761,32.885027)"
     points="255.522,246.655 323.298,314.432 323.298,178.879 "
     id="polygon3784"
     style="fill:#7fd13b;fill-opacity:1" /><polygon
     transform="matrix(0,-0.14572867,0.14572867,0,-6.8957992,79.620094)"
     points="8.869,323.298 314.43,323.298 161.649,170.517 "
     id="polygon3786"
     style="fill:#60b5cc" /><path
     sodipodi:nodetypes="csscccccccc"
     inkscape:connector-curvature="0"
     id="path4713"
     d="m 49.423926,78.138345 c 0,0 -1.550602,-8.993476 -2.119153,-13.025039 -0.568556,-4.031553 1.936605,-3.968099 2.584332,-3.514689 1.550599,1.085422 1.44588,6.439154 -0.154519,5.994352 -2.397475,-0.29584 -1.50747,-6.646455 1.601746,-6.614595 4.022715,0.197118 3.16566,6.597843 1.760487,6.710941 -2.792433,0.346098 -2.134539,-7.586881 2.012638,-6.659247 2.63702,1.138197 2.803267,5.591141 1.653965,6.357451 -1.240477,0.775298 -2.067457,-0.465179 -2.170831,-2.584329 -0.144756,-3.628342 3.468362,-5.029844 4.04842,-1.177666 0.539711,3.406605 -1.670832,14.61619 -1.670832,14.61619"
     style="fill:none;stroke:#5a6378;stroke-width:0.88809931;stroke-linecap:butt;stroke-linejoin:miter;stroke-miterlimit:4;stroke-dasharray:none;stroke-opacity:1" /><rect
     inkscape:transform-center-y="-1.2423958"
     inkscape:transform-center-x="-3.5719144"
     x="45.010456"
     y="78.14328"
     width="15.691331"
     height="15.762882"
     id="rect3778-3"
     style="fill:#000000;fill-opacity:0;stroke-width:0.14572728" /><text
     transform="scale(0.96679157,1.0343491)"
     id="text4918"
     y="59.952137"
     x="107.06275"
     style="font-style:normal;font-variant:normal;font-weight:normal;font-stretch:normal;font-size:16.21428108px;line-height:1.25;font-family:'IBM Plex Sans';-inkscape-font-specification:'IBM Plex Sans';letter-spacing:0px;word-spacing:0px;fill:#000000;fill-opacity:1;stroke:none;stroke-width:0.405357"
     xml:space="preserve"><tspan
       style="font-style:normal;font-variant:normal;font-weight:600;font-stretch:normal;font-size:21.61903954px;font-family:'IBM Plex Sans';-inkscape-font-specification:'IBM Plex Sans Semi-Bold';stroke-width:0.405357"
       y="59.952137"
       x="107.06275"
       id="tspan4916"
       sodipodi:role="line">elm-problem-solving</tspan></text>
</g>

</svg>